<svg xmlns="http://www.w3.org/2000/svg" width="42.156" height="48.029" viewBox="0 0 42.156 48.029"><defs><style>.a{fill:#7ed09e;}.b{fill:#24ae5f;}.c{fill:#bbd1b5;}.d{fill:#4fba6f;}</style></defs><g transform="translate(-0.027 0.001)"><path class="a" d="M4.511,370.8c0,2.944,4.484,5.888,4.484,8.832a4.485,4.485,0,0,1-8.967,0c0-2.944,4.484-5.888,4.484-8.832Zm0,0" transform="translate(0 -336.026)"/><path class="b" d="M10.641,436.677a4.494,4.494,0,0,1-8.8,1.2,4.5,4.5,0,0,0,3.42,1.556,4.447,4.447,0,0,0,4.479-4.413,3.668,3.668,0,0,0-.248-1.275,5.524,5.524,0,0,1,1.151,2.931Zm0,0" transform="translate(-1.643 -393.063)"/><path class="a" d="M66.323,262.95s-14.076-2.484-14.076-15.732C52.247,247.218,63.839,247.218,66.323,262.95Zm0,0" transform="translate(-47.322 -224.031)"/><path class="c" d="M81.279,279.128c-3.412-1.214-9.251-4.317-10.142-11.5C73.9,268.291,79.122,270.662,81.279,279.128Zm0,0" transform="translate(-64.44 -242.528)"/><path class="b" d="M87.088,3.8a1.106,1.106,0,0,0,.149,1.5A5.213,5.213,0,0,1,88.57,7.157a.174.174,0,0,1-.191.232,14.635,14.635,0,0,0-3.387-.29,1.076,1.076,0,0,0-.8.431c-.977,1.283-2.012,2.674-3.08,4.165a.773.773,0,0,0,0,.886,5.7,5.7,0,0,1,1.259,3.734.469.469,0,0,1-.836.232,4.172,4.172,0,0,0-2.144-1.523.73.73,0,0,0-.828.3c-1.962,2.865-3.941,5.953-5.755,9.116a1.567,1.567,0,0,0,.439,2.029,16.689,16.689,0,0,1,3.2,3.237.288.288,0,0,1-.348.431,9.884,9.884,0,0,0-5.672-.058,1.554,1.554,0,0,0-1.018.845,53.212,53.212,0,0,0-3.08,8C63.838,23.187,52.246,23.187,52.246,23.187s1.83-1.772,4.992-4.388a.8.8,0,0,0,.248-.894,8.415,8.415,0,0,0-1.83-3,.546.546,0,0,1,.356-.935,12.693,12.693,0,0,1,5.572.82.785.785,0,0,0,.828-.066c1.855-1.383,3.908-2.848,6.135-4.314a1.035,1.035,0,0,0,.464-.952,11.449,11.449,0,0,0-.8-3.146.265.265,0,0,1,.323-.356A12.989,12.989,0,0,1,71.878,7.6a1.008,1.008,0,0,0,1.085.025C74.668,6.6,76.448,5.6,78.287,4.64a1.021,1.021,0,0,0,.538-.72,7.586,7.586,0,0,0,.008-2.608A.282.282,0,0,1,79.214,1a6.441,6.441,0,0,1,2.1,1.366,1.026,1.026,0,0,0,1.159.215C84.5,1.651,86.592.8,88.711.036a.587.587,0,0,1,.662.919c-.588.728-1.366,1.689-2.285,2.84Zm0,0" transform="translate(-47.321 0)"/><path class="d" d="M255.722,86.958c-.153,0-.306-.007-.458-.021a.828.828,0,1,1,.148-1.649,3.546,3.546,0,0,0,2.114-.488c1.076-.643,2.177-1.277,3.275-1.881a.828.828,0,1,1,.8,1.451c-1.076.6-2.164,1.218-3.222,1.851A5.167,5.167,0,0,1,255.722,86.958Zm0,0" transform="translate(-230.607 -75.043)"/><path class="d" d="M137.182,165.333a5,5,0,0,1-1.339-.185.828.828,0,0,1,.445-1.595,3.279,3.279,0,0,0,2.842-.523q.958-.719,1.932-1.417a.829.829,0,0,1,.967,1.347q-.96.69-1.9,1.4a4.868,4.868,0,0,1-2.942.975Zm0,0" transform="translate(-122.544 -146.315)"/><path class="c" d="M19.307,423.959a1.494,1.494,0,0,0-1.977.613,1.494,1.494,0,0,0,.034,2.07,1.5,1.5,0,0,0,1.977-.613A1.494,1.494,0,0,0,19.307,423.959Zm0,0" transform="translate(-15.324 -384.026)"/></g></svg>