<svg id="aloe-vera" xmlns="http://www.w3.org/2000/svg" width="45.335" height="48.029" viewBox="0 0 45.335 48.029">
  <path id="Trazado_12" data-name="Trazado 12" d="M57.935,12.12a1.484,1.484,0,0,0-2.837-.135,41.977,41.977,0,0,1-4.017,10.543c.087-6.089-2.964-10.19-1.992-16.794a1.483,1.483,0,0,0-2.5-1.091,29.978,29.978,0,0,0-6.035,7.342c-1.137-3.356-2.342-7-3.477-11.033a1.5,1.5,0,0,0-2.794,0c-1.135,4.031-2.34,7.677-3.477,11.033a29.979,29.979,0,0,0-6.035-7.342,1.483,1.483,0,0,0-2.5,1.091c.971,6.6-2.079,10.705-1.992,16.794a41.991,41.991,0,0,1-4.017-10.543,1.484,1.484,0,0,0-2.837.135c-2,17.148,3.059,37.783,20.531,35.763l.017-.063a7.074,7.074,0,0,0,3.419,0l.017.063C54.846,49.9,59.937,29.3,57.935,12.12Z" transform="translate(-13.01 0)" fill="#24ae5f"/>
  <g id="Grupo_3" data-name="Grupo 3" transform="translate(0 0)">
    <path id="Trazado_13" data-name="Trazado 13" d="M338.915,107.844a6.543,6.543,0,0,1-.508,3.228c-2.388,5.9-5.594,11.2-10.621,15.1a.827.827,0,0,1-1.329-.582q-.032-.369-.073-.741c4.083-3.745,7.46-8.9,9.637-17.645a1.484,1.484,0,0,1,2.837.135Q338.888,107.592,338.915,107.844Z" transform="translate(-293.934 -95.221)" fill="#4fba6f"/>
    <path id="Trazado_14" data-name="Trazado 14" d="M287.521,42.482c-.224,1.535-3.087,2.355-6.644,7.681a.828.828,0,0,1-1.472-.193l-.421-1.238a29.979,29.979,0,0,1,6.035-7.342A1.483,1.483,0,0,1,287.521,42.482Z" transform="translate(-251.442 -36.748)" fill="#4fba6f"/>
    <path id="Trazado_15" data-name="Trazado 15" d="M87.5,44.076c.872,5.926-1.685,12.06-2.145,16.018a.828.828,0,0,1-1.525.341q-.346-.557-.682-1.154c-.087-6.089,2.964-10.19,1.992-16.794a1.482,1.482,0,0,1,2.513-1.081,1.275,1.275,0,0,1,.1,1.7A1.263,1.263,0,0,0,87.5,44.076Z" transform="translate(-75.884 -36.753)" fill="#4fba6f"/>
    <path id="Trazado_16" data-name="Trazado 16" d="M22.191,137.972a.828.828,0,0,1-1.22,1.114c-6.977-6.615-8.92-20-7.551-31.748a1.484,1.484,0,0,1,2.839-.129,2.107,2.107,0,0,1,0,.992C15.414,111.794,14.891,128.745,22.191,137.972Z" transform="translate(-13.011 -95.22)" fill="#4fba6f"/>
    <path id="Trazado_17" data-name="Trazado 17" d="M142.013,45a.829.829,0,0,1-1.306.978,9.157,9.157,0,0,1-1.606-1.994c-7.653-12.694-.288-23.312,5.266-43.036a1.5,1.5,0,0,1,2.794,0c1.076,3.825,1.182,3.7,1.069,4.091-1.052,3.643-2.154,6.968-3.2,10.049C141.475,25.591,137.412,35.807,142.013,45Z" transform="translate(-123.097 0)" fill="#4fba6f"/>
  </g>
  <path id="Trazado_18" data-name="Trazado 18" d="M96.841,145.234l-.017.063a19.589,19.589,0,0,1-3.246.115.808.808,0,0,1-.444-.16,11.617,11.617,0,0,1-3.3-4.1A23.621,23.621,0,0,1,87.29,125.59a28.255,28.255,0,0,1-4.142-5.647q0-.109,0-.217a.828.828,0,0,1,1.547-.416,27.1,27.1,0,0,0,2.966,4.213,126.2,126.2,0,0,1,4.327-14.292.828.828,0,0,1,1.493-.165q.1.164.2.334c-4.424,13.061-7.9,21.873-1.788,32A8.1,8.1,0,0,0,96.841,145.234Z" transform="translate(-75.883 -97.415)" fill="#7ed09e"/>
  <path id="Trazado_19" data-name="Trazado 19" d="M262.118,119.933a28.262,28.262,0,0,1-4.142,5.648,24.008,24.008,0,0,1-1.162,12.573,23.031,23.031,0,0,1-2.835,5.275,10.22,10.22,0,0,1-1.833,1.8.834.834,0,0,1-.459.171,19.489,19.489,0,0,1-3.246-.114l-.017-.063a8.1,8.1,0,0,0,4.953-3.831c6.093-10.107,2.656-18.929-1.788-32q.1-.17.2-.334a.828.828,0,0,1,1.492.163,127.575,127.575,0,0,1,4.327,14.3,27.029,27.029,0,0,0,2.965-4.214.828.828,0,0,1,1.547.415Q262.12,119.824,262.118,119.933Z" transform="translate(-224.048 -97.405)" fill="#7ed09e"/>
</svg>
