<svg xmlns="http://www.w3.org/2000/svg" width="49" height="49" viewBox="0 0 49 49">
  <g id="google" transform="translate(0 0)">
    <g id="Grupo_8" data-name="Grupo 8" transform="translate(0 13.658)">
      <g id="Grupo_7" data-name="Grupo 7">
        <path id="Trazado_41" data-name="Trazado 41" d="M10.872,147.535l-8.346-4.818a24.339,24.339,0,0,0,.035,21.664l8.311-4.8a14.768,14.768,0,0,1,0-12.047Z" transform="translate(0 -142.717)" fill="#fff"/>
      </g>
    </g>
    <g id="Grupo_10" data-name="Grupo 10" transform="translate(4.127 0)">
      <g id="Grupo_9" data-name="Grupo 9">
        <path id="Trazado_42" data-name="Trazado 42" d="M79.571,6.007a24.5,24.5,0,0,0-36.444,4.886l8.352,4.822A14.844,14.844,0,0,1,72.97,13a1.584,1.584,0,0,0,2.131-.1L79.65,8.35A1.6,1.6,0,0,0,79.571,6.007Z" transform="translate(-43.127 0)" fill="#fff"/>
      </g>
    </g>
    <g id="Grupo_12" data-name="Grupo 12" transform="translate(25.565 20.239)">
      <g id="Grupo_11" data-name="Grupo 11">
        <path id="Trazado_43" data-name="Trazado 43" d="M290.4,212.905a1.607,1.607,0,0,0-1.594-1.425H268.729a1.6,1.6,0,0,0-1.6,1.6v6.386a1.6,1.6,0,0,0,1.6,1.6h11.25a15.026,15.026,0,0,1-5.127,6.7l4.778,8.276a25.022,25.022,0,0,0,10.077-14A23.58,23.58,0,0,0,290.4,212.905Z" transform="translate(-267.131 -211.479)" fill="#fff"/>
      </g>
    </g>
    <g id="Grupo_14" data-name="Grupo 14" transform="translate(4.162 33.286)">
      <g id="Grupo_13" data-name="Grupo 13">
        <path id="Trazado_44" data-name="Trazado 44" d="M69.848,352.642A14.821,14.821,0,0,1,51.8,347.8l-8.317,4.8a24.475,24.475,0,0,0,20.338,10.913,24,24,0,0,0,10.8-2.592Z" transform="translate(-43.487 -347.801)" fill="#fff"/>
      </g>
    </g>
  </g>
</svg>
