<svg xmlns="http://www.w3.org/2000/svg" width="39.194" height="49.014" viewBox="0 0 39.194 49.014"><defs><style>.a{fill:#24ae5f;}.b{fill:#4fba6f;}.c{fill:#7ed09e;}.d{fill:#fec37d;}.e{fill:#f9ae5d;}.f{fill:#f2a559;}.g{fill:#ea8f3d;}</style></defs><g transform="translate(1254.07 242.547)"><g transform="translate(-1250.769 -242.547)"><path class="a" d="M45.307,8.713a1.067,1.067,0,0,0-2.04-.1A30.178,30.178,0,0,1,40.38,16.2c.063-4.377-2.131-7.326-1.432-12.073a1.066,1.066,0,0,0-1.8-.785A21.552,21.552,0,0,0,32.81,8.616c-.817-2.413-1.684-5.034-2.5-7.932a1.079,1.079,0,0,0-2.008,0c-.816,2.9-1.682,5.519-2.5,7.932a21.552,21.552,0,0,0-4.339-5.278,1.066,1.066,0,0,0-1.8.785c.7,4.747-1.495,7.7-1.432,12.073a30.188,30.188,0,0,1-2.888-7.58,1.067,1.067,0,0,0-2.04.1c-1.437,12.328,2.2,27.163,14.76,25.711l.012-.045a5.086,5.086,0,0,0,2.458,0l.012.045c12.539,1.45,16.2-13.363,14.76-25.711Z" transform="translate(-13.01 0)"/><g transform="translate(0 0)"><path class="b" d="M335.393,107.387a4.7,4.7,0,0,1-.365,2.321c-1.717,4.241-4.021,8.053-7.635,10.856a.6.6,0,0,1-.956-.418q-.023-.265-.053-.533c2.936-2.692,5.363-6.4,6.928-12.685a1.067,1.067,0,0,1,2.04.1Q335.373,107.206,335.393,107.387Z" transform="translate(-303.055 -98.313)"/><path class="b" d="M285.121,42.063c-.161,1.1-2.22,1.693-4.776,5.522a.6.6,0,0,1-1.058-.139l-.3-.89a21.553,21.553,0,0,1,4.339-5.278A1.066,1.066,0,0,1,285.121,42.063Z" transform="translate(-259.184 -37.941)"/><path class="b" d="M86.277,43.211c.627,4.261-1.211,8.67-1.542,11.516a.6.6,0,0,1-1.1.245q-.249-.4-.49-.829c-.063-4.377,2.131-7.326,1.432-12.073a1.066,1.066,0,0,1,1.806-.777.917.917,0,0,1,.075,1.223A.908.908,0,0,0,86.277,43.211Z" transform="translate(-77.925 -37.947)"/><path class="b" d="M19.611,129.047a.6.6,0,0,1-.877.8c-5.016-4.756-6.413-14.378-5.428-22.824a1.067,1.067,0,0,1,2.041-.093,1.515,1.515,0,0,1,0,.713C14.738,110.227,14.362,122.414,19.611,129.047Z" transform="translate(-13.011 -98.312)"/><path class="b" d="M140.27,32.354a.6.6,0,0,1-.939.7,6.584,6.584,0,0,1-1.155-1.434c-5.5-9.126-.207-16.759,3.785-30.94a1.079,1.079,0,0,1,2.008,0c.773,2.75.85,2.659.768,2.941-.756,2.619-1.548,5.009-2.3,7.224C139.884,18.4,136.963,25.742,140.27,32.354Z" transform="translate(-126.671 0)"/></g><path class="c" d="M92.992,134.956,92.98,135a14.087,14.087,0,0,1-2.334.082.581.581,0,0,1-.319-.115,8.352,8.352,0,0,1-2.373-2.95,16.981,16.981,0,0,1-1.829-11.185,20.313,20.313,0,0,1-2.978-4.059q0-.078,0-.156a.6.6,0,0,1,1.112-.3,19.479,19.479,0,0,0,2.132,3.029A90.727,90.727,0,0,1,89.5,109.073a.6.6,0,0,1,1.073-.119q.071.118.143.24c-3.181,9.39-5.676,15.725-1.286,23.008A5.823,5.823,0,0,0,92.992,134.956Z" transform="translate(-77.925 -100.578)"/><path class="c" d="M258.269,116.763a20.315,20.315,0,0,1-2.978,4.06,17.259,17.259,0,0,1-.835,9.039,16.557,16.557,0,0,1-2.038,3.792,7.345,7.345,0,0,1-1.318,1.295.6.6,0,0,1-.33.123,14.016,14.016,0,0,1-2.334-.082l-.012-.045a5.823,5.823,0,0,0,3.561-2.754c4.381-7.266,1.91-13.608-1.286-23.008q.072-.122.143-.24a.6.6,0,0,1,1.073.117,91.724,91.724,0,0,1,3.111,10.278,19.435,19.435,0,0,0,2.132-3.03.6.6,0,0,1,1.112.3Q258.27,116.685,258.269,116.763Z" transform="translate(-230.9 -100.568)"/></g><g transform="translate(-1254.07 -213.204)"><path class="d" d="M37.29,67.917l3.9,16.162c.155.642,1.11,1.12,2.238,1.12h1.144a2.041,2.041,0,0,0,1.645-.642h0a2.041,2.041,0,0,1,1.645-.642H59a2.041,2.041,0,0,1,1.645.642h0a2.041,2.041,0,0,0,1.645.642h1.144c1.128,0,2.083-.478,2.238-1.12l3.9-16.162Z" transform="translate(-34.435 -65.529)"/><path class="e" d="M113.085,67.917l-3.9,16.162v0c-.03.122-.278.181-.453.111a1.385,1.385,0,0,1-.622-.45h0a2.1,2.1,0,0,0-1.677-.642H95.076a2.1,2.1,0,0,0-1.677.642h0a2.1,2.1,0,0,1-1.677.642H90.557a2.631,2.631,0,0,1-2.164-.853l.132.548c.155.642,1.109,1.12,2.236,1.12H91.9a2.038,2.038,0,0,0,1.643-.642h0a2.038,2.038,0,0,1,1.643-.642h11.128a2.038,2.038,0,0,1,1.643.642h0a1.205,1.205,0,0,0,.408.352h0l.032.017c.053.028.108.054.166.079h0q.094.039.2.071l.032.01.072.02.069.017.05.011.063.013.041.008.1.016.037,0,.094.01.019,0,.114.008.04,0,.111,0h1.141c1.127,0,2.081-.478,2.236-1.12l3.9-16.162Z" transform="translate(-81.741 -65.529)"/><path class="f" d="M38.411,41.543H.783A.783.783,0,0,1,0,40.76V37.5a.783.783,0,0,1,.783-.783H38.411a.783.783,0,0,1,.783.783V40.76A.783.783,0,0,1,38.411,41.543Z" transform="translate(0 -36.72)"/><path class="g" d="M462.35,36.72h-3.268v4.823h3.268a.783.783,0,0,0,.783-.783V37.5A.783.783,0,0,0,462.35,36.72Z" transform="translate(-423.939 -36.72)"/><path class="f" d="M87.089,224.326c-1.936,0-1.936-.437-3.873-.437s-1.936.437-3.873.437-1.936-.437-3.873-.437-1.936.437-3.873.437-1.936-.437-3.873-.437-1.936.437-3.873.437-1.937-.437-3.873-.437a7.772,7.772,0,0,0-.946.172l.542,2.518c.224-.025.6,0,.907,0,1.864,0,1.864.437,3.729.437s1.865-.437,3.729-.437,1.864.437,3.729.437,1.864-.437,3.729-.437,1.865.437,3.729.437,1.864-.437,3.729-.437,1.874.461,3.738.437c.264,0,.489-.012.688-.024l.652-2.71A7.364,7.364,0,0,1,87.089,224.326Z" transform="translate(-54.469 -214.884)"/></g></g></svg>